<svg width="800" height="800" viewBox="0 0 800 800" fill="none" xmlns="http://www.w3.org/2000/svg">
<g clip-path="url(#clip0_109_2)">
<path fill-rule="evenodd" clip-rule="evenodd" d="M400 0C179 0 0 179 0 400C0 577 114.5 726.5 273.5 779.5C293.5 783 301 771 301 760.5C301 751 300.5 719.5 300.5 686C200 704.5 174 661.5 166 639C161.5 627.5 142 592 125 582.5C111 575 91 556.5 124.5 556C156 555.5 178.5 585 186 597C222 657.5 279.5 640.5 302.5 630C306 604 316.5 586.5 328 576.5C239 566.5 146 532 146 379C146 335.5 161.5 299.5 187 271.5C183 261.5 169 220.5 191 165.5C191 165.5 224.5 155 301 206.5C333 197.5 367 193 401 193C435 193 469 197.5 501 206.5C577.5 154.5 611 165.5 611 165.5C633 220.5 619 261.5 615 271.5C640.5 299.5 656 335 656 379C656 532.5 562.5 566.5 473.5 576.5C488 589 500.5 613 500.5 650.5C500.5 704 500 747 500 760.5C500 771 507.5 783.5 527.5 779.5C606.906 752.691 675.906 701.656 724.789 633.579C773.672 565.502 799.976 483.81 800 400C800 179 621 0 400 0Z" fill="black"/>
</g>
<defs>
<clipPath id="clip0_109_2">
<rect width="800" height="800" fill="white"/>
</clipPath>
</defs>
</svg>
