<svg width="800" height="800" viewBox="0 0 800 800" fill="none" xmlns="http://www.w3.org/2000/svg">
<g clip-path="url(#clip0_109_9)">
<path fill-rule="evenodd" clip-rule="evenodd" d="M400 800C620.914 800 800 620.914 800 400C800 179.086 620.914 0 400 0C179.086 0 0 179.086 0 400C0 620.914 179.086 800 400 800ZM683.333 534.583V303.893L409.86 447.147C406.818 448.74 403.434 449.573 400 449.573C396.566 449.573 393.182 448.74 390.14 447.147L116.667 303.893V534.583L116.808 539.797C118.14 563.279 128.407 585.363 145.503 601.516C162.6 617.669 185.229 626.668 208.75 626.667H591.25L596.463 626.525C619.946 625.193 642.029 614.926 658.183 597.83C674.336 580.733 683.335 558.104 683.333 534.583ZM591.25 173.333H208.75L203.48 173.475C181.598 174.727 160.879 183.743 145.05 198.903C129.22 214.063 119.316 234.372 117.12 256.18L400 404.363L682.88 256.18C680.591 233.47 669.948 212.42 653.018 197.113C636.087 181.805 614.075 173.331 591.25 173.333Z" fill="black"/>
</g>
<defs>
<clipPath id="clip0_109_9">
<rect width="800" height="800" fill="white"/>
</clipPath>
</defs>
</svg>
