<svg width="800" height="800" viewBox="0 0 800 800" fill="none" xmlns="http://www.w3.org/2000/svg">
<g clip-path="url(#clip0_109_22)">
<path fill-rule="evenodd" clip-rule="evenodd" d="M800 400C800 620.914 620.914 800 400 800C179.086 800 0 620.914 0 400C0 179.086 179.086 0 400 0C620.914 0 800 179.086 800 400ZM334.71 292.008C351.202 292.008 364.454 278.755 364.454 262.263C364.454 245.771 351.202 232.519 334.71 232.519C318.218 232.519 304.965 245.771 304.965 262.263C304.965 278.755 318.218 292.008 334.71 292.008ZM334.71 302.021C367.694 302.021 394.493 324.992 394.493 356.798V371.817C394.493 374.467 393.315 377.118 391.548 378.885C389.781 380.652 387.131 381.83 384.48 381.83H284.94C282.289 381.83 279.638 380.652 277.871 378.885C276.104 377.118 274.927 374.467 274.927 371.817V356.798C274.927 324.992 301.726 302.021 334.71 302.021ZM280.807 428.057C276.665 432.199 274.337 437.817 274.337 443.675C274.337 449.533 276.665 455.151 280.807 459.293C284.949 463.435 290.567 465.762 296.425 465.762H502.575C508.433 465.762 514.051 463.435 518.193 459.293C522.335 455.151 524.662 449.533 524.662 443.675C524.662 437.817 522.335 432.199 518.193 428.057C514.051 423.915 508.433 421.587 502.575 421.587H296.425C290.567 421.587 284.949 423.915 280.807 428.057ZM280.807 516.407C276.665 520.549 274.337 526.167 274.337 532.025C274.337 537.883 276.665 543.501 280.807 547.643C284.949 551.785 290.567 554.112 296.425 554.112H502.575C508.433 554.112 514.051 551.785 518.193 547.643C522.335 543.501 524.662 537.883 524.662 532.025C524.662 526.167 522.335 520.549 518.193 516.407C514.051 512.265 508.433 509.938 502.575 509.938H296.425C290.567 509.938 284.949 512.265 280.807 516.407ZM178.625 178.625C178.625 146.171 205.071 119.725 237.525 119.725H434.546C451.096 119.725 466.705 126.734 477.69 138.308L477.866 138.514L604.855 276.988C615.427 288.267 620.375 303.022 620.375 317.04V620.375C620.375 652.829 593.929 679.275 561.475 679.275H237.525C205.071 679.275 178.625 652.829 178.625 620.375V178.625ZM561.475 346.49V620.375H237.525V178.625H405.096V317.04C405.096 324.851 408.198 332.341 413.721 337.864C419.244 343.387 426.735 346.49 434.546 346.49H561.475ZM534.686 287.59L463.995 210.498V287.59H534.686Z" fill="black"/>
</g>
<defs>
<clipPath id="clip0_109_22">
<rect width="800" height="800" fill="white"/>
</clipPath>
</defs>
</svg>
